HIERARCHY
ROOT Hips
{
 OFFSET 0.000000 0.000000 0.000000
 CHANNELS 6 Xposition Yposition Zposition Yrotation Xrotation Zrotation
 JOINT Chest
 {
  OFFSET 0.000000 9.585900 0.002600
  CHANNELS 3 Yrotation Xrotation Zrotation
  JOINT Chest2
  {
   OFFSET 0.000000 9.601200 -0.005300
   CHANNELS 3 Yrotation Xrotation Zrotation
   JOINT Chest3
   {
    OFFSET 0.000000 9.561800 0.000000
    CHANNELS 3 Yrotation Xrotation Zrotation
    JOINT Chest4
    {
     OFFSET 0.000000 9.552100 0.000000
     CHANNELS 3 Yrotation Xrotation Zrotation
     JOINT Neck
     {
      OFFSET 0.000000 14.453000 0.000000
      CHANNELS 3 Yrotation Xrotation Zrotation
      JOINT Head
      {
       OFFSET 0.000000 8.936500 -0.011300
       CHANNELS 3 Yrotation Xrotation Zrotation
       End Site
       {
        OFFSET 0.000000 17.073600 -0.006000
       }
      }
     }
     JOINT RightCollar
     {
      OFFSET -2.921100 9.558500 0.000000
      CHANNELS 3 Yrotation Xrotation Zrotation
      JOINT RightShoulder
      {
       OFFSET -13.519700 0.000000 0.000000
       CHANNELS 3 Yrotation Xrotation Zrotation
       JOINT RightElbow
       {
        OFFSET 0.000000 -29.696600 0.000000
        CHANNELS 3 Yrotation Xrotation Zrotation
        JOINT RightWrist
        {
         OFFSET 0.000000 -24.004700 0.000000
         CHANNELS 3 Yrotation Xrotation Zrotation
         End Site
         {
          OFFSET 0.000000 -17.728500 0.000000
         }
        }
       }
      }
     }
     JOINT LeftCollar
     {
      OFFSET 2.921100 9.558500 0.000000
      CHANNELS 3 Yrotation Xrotation Zrotation
      JOINT LeftShoulder
      {
       OFFSET 13.519700 0.000000 0.000000
       CHANNELS 3 Yrotation Xrotation Zrotation
       JOINT LeftElbow
       {
        OFFSET 0.000000 -29.696600 0.000000
        CHANNELS 3 Yrotation Xrotation Zrotation
        JOINT LeftWrist
        {
         OFFSET 0.000000 -24.004700 0.000000
         CHANNELS 3 Yrotation Xrotation Zrotation
         End Site
         {
          OFFSET 0.000000 -17.728500 0.000000
         }
        }
       }
      }
     }
    }
   }
  }
 }
 JOINT RightHip
 {
  OFFSET -7.771700 -0.012900 -0.001300
  CHANNELS 3 Yrotation Xrotation Zrotation
  JOINT RightKnee
  {
   OFFSET 0.000000 -40.869800 0.001200
   CHANNELS 3 Yrotation Xrotation Zrotation
   JOINT RightAnkle
   {
    OFFSET 0.000000 -39.717900 0.002100
    CHANNELS 3 Yrotation Xrotation Zrotation
    JOINT RightToe
    {
     OFFSET 0.000000 -4.965400 11.033500
     CHANNELS 3 Yrotation Xrotation Zrotation
     End Site
     {
      OFFSET 0.000000 -1.423100 5.872300
     }
    }
   }
  }
 }
 JOINT LeftHip
 {
  OFFSET 7.771700 -0.012900 -0.001300
  CHANNELS 3 Yrotation Xrotation Zrotation
  JOINT LeftKnee
  {
   OFFSET 0.000000 -40.869800 0.001200
   CHANNELS 3 Yrotation Xrotation Zrotation
   JOINT LeftAnkle
   {
    OFFSET 0.000000 -39.717900 0.002100
    CHANNELS 3 Yrotation Xrotation Zrotation
    JOINT LeftToe
    {
     OFFSET 0.000000 -4.965400 11.033500
     CHANNELS 3 Yrotation Xrotation Zrotation
     End Site
     {
      OFFSET 0.000000 -1.423100 5.872300
     }
    }
   }
  }
 }
}
MOTION
Frames: 11
Frame Time: 0.008333
-7.177885 54.047852 29.351356 172.733481 -39.394372 -3.932659 2.708843 21.576669 3.342086 0.288847 2.995576 0.414898 0.462949 4.860236 0.681851 2.074610 18.397898 2.890591 1.674247 15.473343 -1.688104 3.670686 -7.002621 -3.706645 -7.112511 0.502574 -4.554175 -9.236339 -0.338690 5.903941 -126.664958 -79.316360 147.691554 1.812915 5.949233 2.083208 -4.047992 -0.116085 0.426550 18.186199 -2.537926 1.962932 135.822309 -72.790611 -161.142471 -11.171992 16.026637 -2.988229 -4.436582 -41.865401 4.962670 -124.278141 83.914787 -118.756829 -0.050338 -10.335492 -2.933407 0.083695 -0.213586 0.060837 -2.409631 -38.179453 6.576696 75.705261 81.000814 65.734204 -6.255225 -10.343663 8.033842 -0.028825 -0.010885 -0.039475
-7.140924 54.051061 29.352008 172.816776 -39.412793 -4.003617 2.698327 21.611575 3.376739 0.288340 2.994299 0.413201 0.464646 4.859124 0.680210 2.114293 18.398576 2.882526 1.628172 15.453503 -1.646627 3.759086 -7.037783 -3.698237 -7.177257 0.487526 -4.518995 -9.380640 -0.286303 5.943580 -122.499466 -78.759896 143.600542 2.149147 6.739888 4.240330 -4.116909 -0.039937 0.455790 18.619756 -2.643391 1.815661 135.899799 -72.631619 -161.274624 -11.924728 17.916406 -6.111224 -4.506161 -41.884731 5.072072 -124.145675 83.769082 -118.578870 -0.037138 -10.430295 -2.952740 0.114066 -0.145932 0.049355 -2.544337 -38.158856 6.605660 75.876264 80.927920 65.903591 -6.224774 -10.349776 8.005958 -0.068752 -0.001862 -0.061256
-7.108057 54.054361 29.351034 172.905098 -39.442970 -4.084602 2.653233 21.648339 3.407568 0.313739 3.005977 0.410795 0.465954 4.859469 0.677795 2.103196 18.387221 2.884375 1.664091 15.444703 -1.643303 3.797131 -7.066684 -3.660846 -7.210084 0.464210 -4.539546 -9.512542 -0.226926 5.985435 -118.976069 -78.184916 140.174131 2.610691 7.572140 6.491276 -4.136103 0.038140 0.454429 19.072356 -2.746881 1.666187 135.945044 -72.465239 -161.402395 -12.810900 19.757053 -9.341961 -4.695467 -41.815186 5.238145 -123.664655 83.698258 -118.106875 -0.028325 -10.547288 -3.013800 0.122252 -0.061818 0.046172 -2.657589 -38.124462 6.644078 75.956065 80.887360 65.991431 -6.195184 -10.359726 7.982619 -0.108629 0.008884 -0.075958
-7.085152 54.054178 29.348640 172.991019 -39.472723 -4.138545 2.631245 21.694551 3.422423 0.302488 3.010442 0.410438 0.468155 4.860882 0.674707 2.113011 18.385264 2.872772 1.689998 15.426421 -1.620400 3.835050 -7.099941 -3.616517 -7.250211 0.440311 -4.520648 -9.643900 -0.196504 5.983203 -116.054204 -77.607317 137.362733 3.200483 8.428122 8.816558 -4.170914 0.077264 0.473761 19.529691 -2.831514 1.518506 136.053414 -72.299192 -161.606776 -13.827356 21.502796 -12.646417 -4.917412 -41.719366 5.375394 -123.155381 83.684696 -117.663450 0.045105 -10.648648 -3.051962 0.053371 0.015160 0.018728 -2.749399 -38.091843 6.655772 76.003788 80.873802 66.029917 -6.200398 -10.355904 7.968391 -0.097453 0.009984 -0.072455
-7.070703 54.045073 29.347566 173.027066 -39.483045 -4.145975 2.641923 21.746059 3.425780 0.283164 2.993087 0.408085 0.467600 4.854768 0.671172 2.126454 18.390032 2.855783 1.752428 15.417353 -1.590606 3.835492 -7.141195 -3.560141 -7.276718 0.415785 -4.510603 -9.763674 -0.183346 5.966858 -113.705685 -77.046922 135.120820 3.917112 9.286236 11.207353 -4.199546 0.073755 0.502077 19.972889 -2.882381 1.378270 136.280170 -72.139018 -161.935922 -14.956947 23.108743 -15.967815 -5.118054 -41.632629 5.465711 -123.001297 83.741080 -117.540363 0.041900 -10.748640 -3.164392 0.045309 0.071531 0.017577 -2.786979 -38.084110 6.644875 76.078642 80.838470 66.115795 -6.229077 -10.356092 7.939383 -0.094003 0.020301 -0.066628
-7.065258 54.023379 29.346931 173.012354 -39.478258 -4.100164 2.646234 21.754375 3.391811 0.284301 2.993730 0.406947 0.478126 4.872726 0.672125 2.141838 18.388777 2.838629 1.773305 15.399716 -1.559668 3.867828 -7.171878 -3.514056 -7.302245 0.383365 -4.512800 -9.868059 -0.181433 5.937241 -111.932494 -76.528031 133.435733 4.739267 10.123899 13.660511 -4.239225 0.115175 0.519876 20.396007 -2.986379 1.239274 136.583561 -71.978732 -162.346004 -16.182107 24.548306 -19.236784 -5.260907 -41.570390 5.500666 -122.958241 83.824537 -117.545624 0.068451 -10.841347 -3.275391 0.009418 0.125952 0.024576 -2.783301 -38.093603 6.614001 76.151296 80.819343 66.186601 -6.222717 -10.372143 7.908868 -0.072307 0.038915 -0.054912
-7.068541 53.984891 29.347087 172.964667 -39.454231 -4.010593 2.662877 21.745300 3.332455 0.285419 2.994138 0.405640 0.492146 4.901822 0.676483 2.147652 18.378930 2.817440 1.765886 15.367727 -1.535525 3.930007 -7.180903 -3.471445 -7.323479 0.348742 -4.499009 -9.937709 -0.187267 5.894775 -110.767529 -76.089696 132.325109 5.640828 10.927866 16.166791 -4.275359 0.204412 0.529150 20.782287 -3.140054 1.108206 136.860471 -71.810737 -162.735376 -17.491168 25.806212 -22.418713 -5.342893 -41.554607 5.471670 -123.103451 83.913268 -117.739118 0.098054 -10.849322 -3.357632 -0.020985 0.101642 0.014935 -2.753553 -38.124447 6.563440 76.199560 80.795743 66.234626 -6.268568 -10.388393 7.865214 -0.032107 0.069139 -0.042594
-7.087214 53.928125 29.345290 172.881214 -39.423750 -3.828635 2.690409 21.750964 3.217511 0.286718 2.994470 0.402593 0.481926 4.885753 0.664474 2.167227 18.397381 2.806186 1.786920 15.352620 -1.509326 3.958916 -7.197398 -3.430435 -7.343490 0.309870 -4.491501 -10.006074 -0.203010 5.811533 -109.958838 -75.699543 131.565633 6.599667 11.684755 18.706546 -4.304608 0.223943 0.549117 21.114059 -3.224530 1.006744 137.024397 -71.626367 -163.028868 -18.858412 26.879562 -25.503978 -5.312670 -41.575566 5.314319 -123.470074 84.002227 -118.135528 0.116717 -10.794700 -3.436108 -0.035432 0.015083 0.003465 -2.615360 -38.172679 6.411746 76.241455 80.798440 66.273169 -6.307935 -10.454458 7.852173 0.007536 0.144424 -0.029152
-7.113524 53.852168 29.344968 172.746681 -39.372280 -3.586321 2.743364 21.773058 3.075308 0.281230 2.962796 0.387632 0.479513 4.865129 0.657522 2.179702 18.419825 2.790158 1.831883 15.358763 -1.477723 3.938864 -7.240744 -3.411157 -7.345206 0.250949 -4.495077 -10.085093 -0.211606 5.699392 -109.416779 -75.356747 131.075426 7.591608 12.383700 21.258674 -4.322793 0.238371 0.578831 21.408017 -3.306364 0.924576 137.012270 -71.414145 -163.181977 -20.231261 27.772533 -28.485180 -5.194906 -41.637578 5.105234 -123.813451 84.071481 -118.520357 0.162083 -10.696644 -3.486096 -0.067652 -0.121691 -0.011374 -2.419293 -38.247442 6.224972 76.285860 80.805441 66.311236 -6.374204 -10.546808 7.830504 0.055315 0.251094 0.001162
-7.143967 53.762637 29.343824 172.592368 -39.321514 -3.313858 2.791565 21.734169 2.889427 0.290605 2.995230 0.396470 0.491158 4.899839 0.658599 2.182246 18.388248 2.766387 1.829920 15.329680 -1.455878 3.989135 -7.239431 -3.360435 -7.343737 0.177942 -4.501395 -10.162533 -0.207829 5.594559 -109.192655 -75.095066 130.901716 8.598049 13.018634 23.799400 -4.359044 0.249309 0.611957 21.691106 -3.389659 0.864731 136.773271 -71.172695 -163.163681 -21.555502 28.486278 -31.355431 -5.022177 -41.710484 4.866350 -124.162052 84.129935 -118.917394 0.190253 -10.574053 -3.488034 -0.095468 -0.245419 -0.038576 -2.221492 -38.321170 6.040413 76.388439 80.815796 66.374196 -6.475609 -10.664646 7.810338 0.149562 0.382840 0.046357
-7.168786 53.667401 29.340805 172.473163 -39.290802 -3.092925 2.831168 21.745006 2.749909 0.301020 3.040063 0.403951 0.486550 4.873910 0.643875 2.199142 18.437137 2.738101 1.841435 15.259082 -1.420258 4.017016 -7.260956 -3.317733 -7.329730 0.009507 -4.517298 -10.253256 -0.166873 5.494607 -109.116566 -74.875441 130.898748 9.613844 13.583825 26.310682 -4.403567 0.196071 0.661325 21.977329 -3.473915 0.829387 136.267707 -70.908026 -162.940329 -22.799373 29.026933 -34.108083 -4.846422 -41.751570 4.656546 -124.203795 84.142322 -118.958874 0.166758 -10.473651 -3.518072 -0.047078 -0.369694 -0.032345 -2.073899 -38.375702 5.890904 76.533194 80.823433 66.480064 -6.584673 -10.802980 7.794738 0.232371 0.534856 0.085921
